<svg xmlns="http://www.w3.org/2000/svg" viewBox="0 0 1600 900" width="1600" height="900"><defs><linearGradient id="bg" x1="0" y1="0" x2="0" y2="1"><stop offset="0" stop-color="#0b0922"/><stop offset="1" stop-color="#050410"/></linearGradient><radialGradient id="gl" cx="0.5" cy="0.32" r="0.62"><stop offset="0" stop-color="#8b5cff" stop-opacity="0.42"/><stop offset="0.55" stop-color="#46b4ff" stop-opacity="0.10"/><stop offset="1" stop-color="#46b4ff" stop-opacity="0"/></radialGradient></defs><rect width="1600" height="900" fill="url(#bg)"/><rect width="1600" height="900" fill="url(#gl)"/><line x1="120" y1="445" x2="1480" y2="445" stroke="#46b4ff" stroke-opacity="0.16" stroke-width="1"/><path d="M470 300 L640 205 L815 280 L935 175 L1085 250 L1185 335 " fill="none" stroke="#9b7bff" stroke-opacity="0.5" stroke-width="1.4"/><path d="M815 280 L760 375" fill="none" stroke="#9b7bff" stroke-opacity="0.3" stroke-width="1"/><circle cx="470" cy="300" r="13" fill="#8b5cff" fill-opacity="0.20"/><circle cx="470" cy="300" r="5.5" fill="#e6e6ff"/><circle cx="640" cy="205" r="13" fill="#8b5cff" fill-opacity="0.20"/><circle cx="640" cy="205" r="5.5" fill="#e6e6ff"/><circle cx="815" cy="280" r="13" fill="#8b5cff" fill-opacity="0.20"/><circle cx="815" cy="280" r="5.5" fill="#e6e6ff"/><circle cx="935" cy="175" r="10" fill="#8b5cff" fill-opacity="0.20"/><circle cx="935" cy="175" r="4.5" fill="#e6e6ff"/><circle cx="1085" cy="250" r="10" fill="#8b5cff" fill-opacity="0.20"/><circle cx="1085" cy="250" r="4.5" fill="#e6e6ff"/><circle cx="1185" cy="335" r="10" fill="#8b5cff" fill-opacity="0.20"/><circle cx="1185" cy="335" r="4.5" fill="#e6e6ff"/><circle cx="760" cy="375" r="10" fill="#8b5cff" fill-opacity="0.20"/><circle cx="760" cy="375" r="4.5" fill="#e6e6ff"/><circle cx="70" cy="467" r="1.4" fill="#6f6ad8" fill-opacity="0.50"/><circle cx="219" cy="505" r="2.0" fill="#3f7fb5" fill-opacity="0.50"/><circle cx="368" cy="506" r="2.6" fill="#2f8f72" fill-opacity="0.49"/><circle cx="517" cy="506" r="1.4" fill="#7a5fc0" fill-opacity="0.49"/><circle cx="666" cy="507" r="2.0" fill="#6f6ad8" fill-opacity="0.49"/><circle cx="815" cy="507" r="2.6" fill="#3f7fb5" fill-opacity="0.48"/><circle cx="964" cy="508" r="1.4" fill="#2f8f72" fill-opacity="0.48"/><circle cx="1113" cy="508" r="2.0" fill="#7a5fc0" fill-opacity="0.48"/><circle cx="1262" cy="508" r="2.6" fill="#6f6ad8" fill-opacity="0.47"/><circle cx="1411" cy="509" r="1.4" fill="#3f7fb5" fill-opacity="0.47"/><circle cx="100" cy="509" r="2.0" fill="#2f8f72" fill-opacity="0.47"/><circle cx="249" cy="510" r="2.6" fill="#7a5fc0" fill-opacity="0.46"/><circle cx="398" cy="510" r="1.4" fill="#6f6ad8" fill-opacity="0.46"/><circle cx="547" cy="548" r="2.0" fill="#3f7fb5" fill-opacity="0.46"/><circle cx="696" cy="549" r="2.6" fill="#2f8f72" fill-opacity="0.45"/><circle cx="845" cy="549" r="1.4" fill="#7a5fc0" fill-opacity="0.45"/><circle cx="994" cy="550" r="2.0" fill="#6f6ad8" fill-opacity="0.45"/><circle cx="1143" cy="550" r="2.6" fill="#3f7fb5" fill-opacity="0.44"/><circle cx="1292" cy="551" r="1.4" fill="#2f8f72" fill-opacity="0.44"/><circle cx="1441" cy="551" r="2.0" fill="#7a5fc0" fill-opacity="0.44"/><circle cx="130" cy="551" r="2.6" fill="#6f6ad8" fill-opacity="0.43"/><circle cx="279" cy="552" r="1.4" fill="#3f7fb5" fill-opacity="0.43"/><circle cx="428" cy="552" r="2.0" fill="#2f8f72" fill-opacity="0.43"/><circle cx="577" cy="553" r="2.6" fill="#7a5fc0" fill-opacity="0.43"/><circle cx="726" cy="553" r="1.4" fill="#6f6ad8" fill-opacity="0.42"/><circle cx="875" cy="553" r="2.0" fill="#3f7fb5" fill-opacity="0.42"/><circle cx="1024" cy="592" r="2.6" fill="#2f8f72" fill-opacity="0.42"/><circle cx="1173" cy="592" r="1.4" fill="#7a5fc0" fill-opacity="0.41"/><circle cx="1322" cy="593" r="2.0" fill="#6f6ad8" fill-opacity="0.41"/><circle cx="1471" cy="593" r="2.6" fill="#3f7fb5" fill-opacity="0.41"/><circle cx="160" cy="594" r="1.4" fill="#2f8f72" fill-opacity="0.40"/><circle cx="309" cy="594" r="2.0" fill="#7a5fc0" fill-opacity="0.40"/><circle cx="458" cy="594" r="2.6" fill="#6f6ad8" fill-opacity="0.40"/><circle cx="607" cy="595" r="1.4" fill="#3f7fb5" fill-opacity="0.39"/><circle cx="756" cy="595" r="2.0" fill="#2f8f72" fill-opacity="0.39"/><circle cx="905" cy="596" r="2.6" fill="#7a5fc0" fill-opacity="0.39"/><circle cx="1054" cy="596" r="1.4" fill="#6f6ad8" fill-opacity="0.38"/><circle cx="1203" cy="596" r="2.0" fill="#3f7fb5" fill-opacity="0.38"/><circle cx="1352" cy="597" r="2.6" fill="#2f8f72" fill-opacity="0.38"/><circle cx="1501" cy="635" r="1.4" fill="#7a5fc0" fill-opacity="0.37"/><circle cx="190" cy="636" r="2.0" fill="#6f6ad8" fill-opacity="0.37"/><circle cx="339" cy="636" r="2.6" fill="#3f7fb5" fill-opacity="0.37"/><circle cx="488" cy="637" r="1.4" fill="#2f8f72" fill-opacity="0.36"/><circle cx="637" cy="637" r="2.0" fill="#7a5fc0" fill-opacity="0.36"/><circle cx="786" cy="637" r="2.6" fill="#6f6ad8" fill-opacity="0.36"/><circle cx="935" cy="638" r="1.4" fill="#3f7fb5" fill-opacity="0.35"/><circle cx="1084" cy="638" r="2.0" fill="#2f8f72" fill-opacity="0.35"/><circle cx="1233" cy="639" r="2.6" fill="#7a5fc0" fill-opacity="0.35"/><circle cx="1382" cy="639" r="1.4" fill="#6f6ad8" fill-opacity="0.34"/><circle cx="71" cy="639" r="2.0" fill="#3f7fb5" fill-opacity="0.34"/><circle cx="220" cy="640" r="2.6" fill="#2f8f72" fill-opacity="0.34"/><circle cx="369" cy="678" r="1.4" fill="#7a5fc0" fill-opacity="0.33"/><circle cx="518" cy="679" r="2.0" fill="#6f6ad8" fill-opacity="0.33"/><circle cx="667" cy="679" r="2.6" fill="#3f7fb5" fill-opacity="0.33"/><circle cx="816" cy="680" r="1.4" fill="#2f8f72" fill-opacity="0.32"/><circle cx="965" cy="680" r="2.0" fill="#7a5fc0" fill-opacity="0.32"/><circle cx="1114" cy="680" r="2.6" fill="#6f6ad8" fill-opacity="0.32"/><circle cx="1263" cy="681" r="1.4" fill="#3f7fb5" fill-opacity="0.31"/><circle cx="1412" cy="681" r="2.0" fill="#2f8f72" fill-opacity="0.31"/><circle cx="101" cy="682" r="2.6" fill="#7a5fc0" fill-opacity="0.31"/><circle cx="250" cy="682" r="1.4" fill="#6f6ad8" fill-opacity="0.30"/><circle cx="399" cy="682" r="2.0" fill="#3f7fb5" fill-opacity="0.30"/><circle cx="548" cy="683" r="2.6" fill="#2f8f72" fill-opacity="0.30"/><circle cx="697" cy="683" r="1.4" fill="#7a5fc0" fill-opacity="0.30"/><circle cx="846" cy="722" r="2.0" fill="#6f6ad8" fill-opacity="0.29"/><circle cx="995" cy="722" r="2.6" fill="#3f7fb5" fill-opacity="0.29"/><circle cx="1144" cy="723" r="1.4" fill="#2f8f72" fill-opacity="0.29"/><circle cx="1293" cy="723" r="2.0" fill="#7a5fc0" fill-opacity="0.28"/><circle cx="1442" cy="723" r="2.6" fill="#6f6ad8" fill-opacity="0.28"/><circle cx="131" cy="724" r="1.4" fill="#3f7fb5" fill-opacity="0.28"/><circle cx="280" cy="724" r="2.0" fill="#2f8f72" fill-opacity="0.27"/><circle cx="429" cy="725" r="2.6" fill="#7a5fc0" fill-opacity="0.27"/><circle cx="578" cy="725" r="1.4" fill="#6f6ad8" fill-opacity="0.27"/><circle cx="727" cy="725" r="2.0" fill="#3f7fb5" fill-opacity="0.26"/><circle cx="876" cy="726" r="2.6" fill="#2f8f72" fill-opacity="0.26"/><circle cx="1025" cy="726" r="1.4" fill="#7a5fc0" fill-opacity="0.26"/><circle cx="1174" cy="727" r="2.0" fill="#6f6ad8" fill-opacity="0.25"/><circle cx="1323" cy="765" r="2.6" fill="#3f7fb5" fill-opacity="0.25"/><circle cx="1472" cy="766" r="1.4" fill="#2f8f72" fill-opacity="0.25"/><circle cx="161" cy="766" r="2.0" fill="#7a5fc0" fill-opacity="0.24"/><circle cx="310" cy="766" r="2.6" fill="#6f6ad8" fill-opacity="0.24"/><circle cx="459" cy="767" r="1.4" fill="#3f7fb5" fill-opacity="0.24"/><circle cx="608" cy="767" r="2.0" fill="#2f8f72" fill-opacity="0.23"/><circle cx="757" cy="768" r="2.6" fill="#7a5fc0" fill-opacity="0.23"/><circle cx="906" cy="768" r="1.4" fill="#6f6ad8" fill-opacity="0.23"/><circle cx="1055" cy="768" r="2.0" fill="#3f7fb5" fill-opacity="0.22"/><circle cx="1204" cy="769" r="2.6" fill="#2f8f72" fill-opacity="0.22"/><circle cx="1353" cy="769" r="1.4" fill="#7a5fc0" fill-opacity="0.22"/><circle cx="1502" cy="770" r="2.0" fill="#6f6ad8" fill-opacity="0.21"/><circle cx="191" cy="808" r="2.6" fill="#3f7fb5" fill-opacity="0.21"/><circle cx="340" cy="809" r="1.4" fill="#2f8f72" fill-opacity="0.21"/><circle cx="489" cy="809" r="2.0" fill="#7a5fc0" fill-opacity="0.20"/><circle cx="638" cy="809" r="2.6" fill="#6f6ad8" fill-opacity="0.20"/><circle cx="787" cy="810" r="1.4" fill="#3f7fb5" fill-opacity="0.20"/><circle cx="936" cy="810" r="2.0" fill="#2f8f72" fill-opacity="0.19"/><circle cx="1085" cy="811" r="2.6" fill="#7a5fc0" fill-opacity="0.19"/><circle cx="1234" cy="811" r="1.4" fill="#6f6ad8" fill-opacity="0.19"/><circle cx="1383" cy="811" r="2.0" fill="#3f7fb5" fill-opacity="0.18"/><circle cx="72" cy="812" r="2.6" fill="#2f8f72" fill-opacity="0.18"/><circle cx="221" cy="812" r="1.4" fill="#7a5fc0" fill-opacity="0.18"/><circle cx="370" cy="813" r="2.0" fill="#6f6ad8" fill-opacity="0.17"/><circle cx="519" cy="813" r="2.6" fill="#3f7fb5" fill-opacity="0.17"/><circle cx="668" cy="852" r="1.4" fill="#2f8f72" fill-opacity="0.17"/><circle cx="817" cy="852" r="2.0" fill="#7a5fc0" fill-opacity="0.17"/><circle cx="966" cy="852" r="2.6" fill="#6f6ad8" fill-opacity="0.16"/><circle cx="1115" cy="853" r="1.4" fill="#3f7fb5" fill-opacity="0.16"/><circle cx="1264" cy="853" r="2.0" fill="#2f8f72" fill-opacity="0.16"/><circle cx="1413" cy="854" r="2.6" fill="#7a5fc0" fill-opacity="0.15"/><circle cx="102" cy="854" r="1.4" fill="#6f6ad8" fill-opacity="0.15"/><circle cx="251" cy="854" r="2.0" fill="#3f7fb5" fill-opacity="0.15"/><circle cx="400" cy="855" r="2.6" fill="#2f8f72" fill-opacity="0.14"/><circle cx="549" cy="855" r="1.4" fill="#7a5fc0" fill-opacity="0.14"/><circle cx="698" cy="856" r="2.0" fill="#6f6ad8" fill-opacity="0.14"/><circle cx="847" cy="856" r="2.6" fill="#3f7fb5" fill-opacity="0.13"/><circle cx="996" cy="857" r="1.4" fill="#2f8f72" fill-opacity="0.13"/><circle cx="1145" cy="884" r="2.0" fill="#7a5fc0" fill-opacity="0.13"/><circle cx="1294" cy="884" r="2.6" fill="#6f6ad8" fill-opacity="0.12"/><circle cx="1443" cy="884" r="1.4" fill="#3f7fb5" fill-opacity="0.12"/><circle cx="132" cy="884" r="2.0" fill="#2f8f72" fill-opacity="0.12"/><circle cx="281" cy="884" r="2.6" fill="#7a5fc0" fill-opacity="0.11"/></svg>